<?xml version="1.0" encoding="UTF-8"?>
<svg xmlns="http://www.w3.org/2000/svg" viewBox="0 0 630 420" role="img" aria-labelledby="g-airship-title g-airship-desc">
  <title id="g-airship-title">전투 비행선</title>
  <desc id="g-airship-desc">무기 카드 전투 비행선의 판타지 일러스트</desc>
  <defs>
    <linearGradient id="g-airship-bg" x1="0" y1="0" x2="1" y2="1">
      <stop offset="0" stop-color="#1f2937"/>
      <stop offset="0.55" stop-color="#6b7280"/>
      <stop offset="1" stop-color="#d8dee9"/>
    </linearGradient>
    <radialGradient id="g-airship-glow" cx="50%" cy="38%" r="58%">
      <stop offset="0" stop-color="#ffffff" stop-opacity="0.7"/>
      <stop offset="0.58" stop-color="#ffffff" stop-opacity="0.12"/>
      <stop offset="1" stop-color="#000" stop-opacity="0"/>
    </radialGradient>
    <filter id="g-airship-soft" x="-20%" y="-20%" width="140%" height="140%">
      <feDropShadow dx="0" dy="10" stdDeviation="8" flood-color="#000" flood-opacity="0.35"/>
    </filter>
  </defs>
  <rect width="630" height="420" rx="26" fill="url(#g-airship-bg)"/>
  <rect width="630" height="420" rx="26" fill="url(#g-airship-glow)"/>
  <path d="M0 314 C86 286 154 328 242 302 C329 276 407 244 501 279 C553 298 591 287 630 270 L630 420 L0 420 Z" fill="#1a1512" opacity="0.32"/>
  <path d="M0 356 C91 330 158 359 242 340 C340 317 395 299 486 330 C542 349 586 341 630 320 L630 420 L0 420 Z" fill="#070707" opacity="0.2"/>
  <g opacity="0.95" transform="translate(0 0)"><ellipse cx="318" cy="151" rx="168" ry="66" fill="#d8dee9"/><path d="M231 247 H407 L382 314 H256 Z" fill="#1f2937"/><path d="M257 211 L230 250 M378 211 L407 250" fill="none" stroke="#ffffff" stroke-width="12" stroke-linecap="round" stroke-linejoin="round" opacity="0.6"/></g>
  <g opacity="0.55" transform="translate(58 0)"><path d="M171 232 C174 169 254 160 280 205 C308 139 413 141 429 219 C494 211 528 274 482 316 H196 C133 313 121 244 171 232 Z" fill="#f3f6ff"/></g>
  <rect x="18" y="18" width="594" height="384" rx="20" fill="none" stroke="#fff3d0" stroke-opacity="0.22" stroke-width="4"/>
</svg>
