<?xml version="1.0" encoding="UTF-8"?>
<svg xmlns="http://www.w3.org/2000/svg" viewBox="0 0 630 420" role="img" aria-labelledby="g-basilisk-title g-basilisk-desc">
  <title id="g-basilisk-title">바실리스크</title>
  <desc id="g-basilisk-desc">야수 카드 바실리스크의 판타지 일러스트</desc>
  <defs>
    <linearGradient id="g-basilisk-bg" x1="0" y1="0" x2="1" y2="1">
      <stop offset="0" stop-color="#153524"/>
      <stop offset="0.55" stop-color="#2f855a"/>
      <stop offset="1" stop-color="#bfd68f"/>
    </linearGradient>
    <radialGradient id="g-basilisk-glow" cx="50%" cy="38%" r="58%">
      <stop offset="0" stop-color="#f2e394" stop-opacity="0.7"/>
      <stop offset="0.58" stop-color="#f2e394" stop-opacity="0.12"/>
      <stop offset="1" stop-color="#000" stop-opacity="0"/>
    </radialGradient>
    <filter id="g-basilisk-soft" x="-20%" y="-20%" width="140%" height="140%">
      <feDropShadow dx="0" dy="10" stdDeviation="8" flood-color="#000" flood-opacity="0.35"/>
    </filter>
  </defs>
  <rect width="630" height="420" rx="26" fill="url(#g-basilisk-bg)"/>
  <rect width="630" height="420" rx="26" fill="url(#g-basilisk-glow)"/>
  <path d="M0 314 C86 286 154 328 242 302 C329 276 407 244 501 279 C553 298 591 287 630 270 L630 420 L0 420 Z" fill="#1a1512" opacity="0.32"/>
  <path d="M0 356 C91 330 158 359 242 340 C340 317 395 299 486 330 C542 349 586 341 630 320 L630 420 L0 420 Z" fill="#070707" opacity="0.2"/>
  <g opacity="0.95" transform="translate(0 0)"><path d="M155 314 C243 156 361 362 476 149" fill="none" stroke="#153524" stroke-width="48" stroke-linecap="round"/><path d="M439 139 L523 100 L498 190 Z" fill="#153524"/><circle cx="479" cy="139" r="10" fill="#f2e394"/></g>
  <g opacity="0.55" transform="translate(58 0)"><path d="M165 217 C238 140 392 140 466 217 C392 294 238 294 165 217 Z" fill="#bfd68f"/><circle cx="316" cy="217" r="54" fill="#f2e394"/><circle cx="316" cy="217" r="23" fill="#153524"/></g>
  <rect x="18" y="18" width="594" height="384" rx="20" fill="none" stroke="#fff3d0" stroke-opacity="0.22" stroke-width="4"/>
</svg>
