<?xml version="1.0" encoding="UTF-8"?>
<svg xmlns="http://www.w3.org/2000/svg" viewBox="0 0 630 420" role="img" aria-labelledby="g-beastmaster-title g-beastmaster-desc">
  <title id="g-beastmaster-title">야수 조련사</title>
  <desc id="g-beastmaster-desc">마법사 카드 야수 조련사의 판타지 일러스트</desc>
  <defs>
    <linearGradient id="g-beastmaster-bg" x1="0" y1="0" x2="1" y2="1">
      <stop offset="0" stop-color="#3a123f"/>
      <stop offset="0.55" stop-color="#a23b86"/>
      <stop offset="1" stop-color="#f3a6d9"/>
    </linearGradient>
    <radialGradient id="g-beastmaster-glow" cx="50%" cy="38%" r="58%">
      <stop offset="0" stop-color="#ffd9f4" stop-opacity="0.7"/>
      <stop offset="0.58" stop-color="#ffd9f4" stop-opacity="0.12"/>
      <stop offset="1" stop-color="#000" stop-opacity="0"/>
    </radialGradient>
    <filter id="g-beastmaster-soft" x="-20%" y="-20%" width="140%" height="140%">
      <feDropShadow dx="0" dy="10" stdDeviation="8" flood-color="#000" flood-opacity="0.35"/>
    </filter>
  </defs>
  <rect width="630" height="420" rx="26" fill="url(#g-beastmaster-bg)"/>
  <rect width="630" height="420" rx="26" fill="url(#g-beastmaster-glow)"/>
  <path d="M0 314 C86 286 154 328 242 302 C329 276 407 244 501 279 C553 298 591 287 630 270 L630 420 L0 420 Z" fill="#1a1512" opacity="0.32"/>
  <path d="M0 356 C91 330 158 359 242 340 C340 317 395 299 486 330 C542 349 586 341 630 320 L630 420 L0 420 Z" fill="#070707" opacity="0.2"/>
  <g opacity="0.95" transform="translate(0 0)"><circle cx="305" cy="133" r="42" fill="#f3a6d9"/><path d="M233 352 C247 250 371 248 392 352 Z" fill="#3a123f"/><path d="M392 264 C452 233 500 276 493 340" fill="none" stroke="#ffd9f4" stroke-width="12" stroke-linecap="round" stroke-linejoin="round"/></g>
  <g opacity="0.55" transform="translate(58 0)"><ellipse cx="319" cy="278" rx="56" ry="45" fill="#ffd9f4"/><circle cx="239" cy="220" r="25" fill="#ffd9f4"/><circle cx="296" cy="190" r="25" fill="#ffd9f4"/><circle cx="356" cy="190" r="25" fill="#ffd9f4"/><circle cx="411" cy="220" r="25" fill="#ffd9f4"/></g>
  <rect x="18" y="18" width="594" height="384" rx="20" fill="none" stroke="#fff3d0" stroke-opacity="0.22" stroke-width="4"/>
</svg>
