<?xml version="1.0" encoding="UTF-8"?>
<svg xmlns="http://www.w3.org/2000/svg" viewBox="0 0 630 420" role="img" aria-labelledby="g-bell-tower-title g-bell-tower-desc">
  <title id="g-bell-tower-title">종탑</title>
  <desc id="g-bell-tower-desc">땅 카드 종탑의 판타지 일러스트</desc>
  <defs>
    <linearGradient id="g-bell-tower-bg" x1="0" y1="0" x2="1" y2="1">
      <stop offset="0" stop-color="#4b3b25"/>
      <stop offset="0.55" stop-color="#a3753d"/>
      <stop offset="1" stop-color="#2f5b34"/>
    </linearGradient>
    <radialGradient id="g-bell-tower-glow" cx="50%" cy="38%" r="58%">
      <stop offset="0" stop-color="#f0c36a" stop-opacity="0.7"/>
      <stop offset="0.58" stop-color="#f0c36a" stop-opacity="0.12"/>
      <stop offset="1" stop-color="#000" stop-opacity="0"/>
    </radialGradient>
    <filter id="g-bell-tower-soft" x="-20%" y="-20%" width="140%" height="140%">
      <feDropShadow dx="0" dy="10" stdDeviation="8" flood-color="#000" flood-opacity="0.35"/>
    </filter>
  </defs>
  <rect width="630" height="420" rx="26" fill="url(#g-bell-tower-bg)"/>
  <rect width="630" height="420" rx="26" fill="url(#g-bell-tower-glow)"/>
  <path d="M0 314 C86 286 154 328 242 302 C329 276 407 244 501 279 C553 298 591 287 630 270 L630 420 L0 420 Z" fill="#1a1512" opacity="0.32"/>
  <path d="M0 356 C91 330 158 359 242 340 C340 317 395 299 486 330 C542 349 586 341 630 320 L630 420 L0 420 Z" fill="#070707" opacity="0.2"/>
  <g opacity="0.95" transform="translate(0 0)"><path d="M260 121 L371 121 L390 350 L239 350 Z" fill="#2f5b34"/><path d="M232 121 L399 121 L368 80 L264 80 Z" fill="#4b3b25"/><path d="M292 173 H340 V229 H292 Z M282 271 H350 V350 H282 Z" fill="#4b3b25" opacity="0.7"/></g>
  <g opacity="0.55" transform="translate(58 0)"><circle cx="433" cy="94" r="52" fill="#2f5b34"/><circle cx="456" cy="82" r="52" fill="#a3753d"/></g>
  <rect x="18" y="18" width="594" height="384" rx="20" fill="none" stroke="#fff3d0" stroke-opacity="0.22" stroke-width="4"/>
</svg>
