<?xml version="1.0" encoding="UTF-8"?>
<svg xmlns="http://www.w3.org/2000/svg" viewBox="0 0 630 420" role="img" aria-labelledby="g-blizzard-title g-blizzard-desc">
  <title id="g-blizzard-title">눈보라</title>
  <desc id="g-blizzard-desc">날씨 카드 눈보라의 판타지 일러스트</desc>
  <defs>
    <linearGradient id="g-blizzard-bg" x1="0" y1="0" x2="1" y2="1">
      <stop offset="0" stop-color="#263650"/>
      <stop offset="0.55" stop-color="#8aa0c8"/>
      <stop offset="1" stop-color="#e7edf8"/>
    </linearGradient>
    <radialGradient id="g-blizzard-glow" cx="50%" cy="38%" r="58%">
      <stop offset="0" stop-color="#ffffff" stop-opacity="0.7"/>
      <stop offset="0.58" stop-color="#ffffff" stop-opacity="0.12"/>
      <stop offset="1" stop-color="#000" stop-opacity="0"/>
    </radialGradient>
    <filter id="g-blizzard-soft" x="-20%" y="-20%" width="140%" height="140%">
      <feDropShadow dx="0" dy="10" stdDeviation="8" flood-color="#000" flood-opacity="0.35"/>
    </filter>
  </defs>
  <rect width="630" height="420" rx="26" fill="url(#g-blizzard-bg)"/>
  <rect width="630" height="420" rx="26" fill="url(#g-blizzard-glow)"/>
  <path d="M0 314 C86 286 154 328 242 302 C329 276 407 244 501 279 C553 298 591 287 630 270 L630 420 L0 420 Z" fill="#1a1512" opacity="0.32"/>
  <path d="M0 356 C91 330 158 359 242 340 C340 317 395 299 486 330 C542 349 586 341 630 320 L630 420 L0 420 Z" fill="#070707" opacity="0.2"/>
  <g opacity="0.95" transform="translate(0 0)"><path d="M316 96 V318 M220 151 L412 263 M412 151 L220 263" fill="none" stroke="#f8fbff" stroke-width="14" stroke-linecap="round"/><circle cx="316" cy="207" r="23" fill="#f8fbff"/></g>
  <g opacity="0.55" transform="translate(58 0)"><path d="M84 327 L213 112 L300 327 Z" fill="#263650" opacity="0.8"/><path d="M184 327 L332 78 L506 327 Z" fill="#8aa0c8" opacity="0.78"/><path d="M332 78 L382 188 L342 169 L314 215 L285 169 Z" fill="#e7edf8"/></g>
  <rect x="18" y="18" width="594" height="384" rx="20" fill="none" stroke="#fff3d0" stroke-opacity="0.22" stroke-width="4"/>
</svg>
