<?xml version="1.0" encoding="UTF-8"?>
<svg xmlns="http://www.w3.org/2000/svg" viewBox="0 0 630 420" role="img" aria-labelledby="g-cavern-title g-cavern-desc">
  <title id="g-cavern-title">동굴</title>
  <desc id="g-cavern-desc">땅 카드 동굴의 판타지 일러스트</desc>
  <defs>
    <linearGradient id="g-cavern-bg" x1="0" y1="0" x2="1" y2="1">
      <stop offset="0" stop-color="#4b3b25"/>
      <stop offset="0.55" stop-color="#a3753d"/>
      <stop offset="1" stop-color="#2f5b34"/>
    </linearGradient>
    <radialGradient id="g-cavern-glow" cx="50%" cy="38%" r="58%">
      <stop offset="0" stop-color="#f0c36a" stop-opacity="0.7"/>
      <stop offset="0.58" stop-color="#f0c36a" stop-opacity="0.12"/>
      <stop offset="1" stop-color="#000" stop-opacity="0"/>
    </radialGradient>
    <filter id="g-cavern-soft" x="-20%" y="-20%" width="140%" height="140%">
      <feDropShadow dx="0" dy="10" stdDeviation="8" flood-color="#000" flood-opacity="0.35"/>
    </filter>
  </defs>
  <rect width="630" height="420" rx="26" fill="url(#g-cavern-bg)"/>
  <rect width="630" height="420" rx="26" fill="url(#g-cavern-glow)"/>
  <path d="M0 314 C86 286 154 328 242 302 C329 276 407 244 501 279 C553 298 591 287 630 270 L630 420 L0 420 Z" fill="#1a1512" opacity="0.32"/>
  <path d="M0 356 C91 330 158 359 242 340 C340 317 395 299 486 330 C542 349 586 341 630 320 L630 420 L0 420 Z" fill="#070707" opacity="0.2"/>
  <g opacity="0.95" transform="translate(0 0)"><path d="M109 350 C122 202 207 103 313 103 C419 103 512 201 524 350 Z" fill="#14110f"/><path d="M183 350 C189 246 237 181 316 181 C392 181 444 247 449 350 Z" fill="#4b3b25"/><path d="M238 129 L286 217 L318 136 L357 224 L404 132" fill="none" stroke="#f0c36a" stroke-width="12" stroke-linecap="round" stroke-linejoin="round" opacity="0.55"/></g>
  <g opacity="0.55" transform="translate(58 0)"><path d="M316 74 L439 159 L392 333 L239 333 L190 159 Z" fill="#9fdcff"/><path d="M316 74 L316 333 M190 159 L439 159 M239 333 L316 159 L392 333" fill="none" stroke="#244a75" stroke-width="9" opacity="0.65"/></g>
  <rect x="18" y="18" width="594" height="384" rx="20" fill="none" stroke="#fff3d0" stroke-opacity="0.22" stroke-width="4"/>
</svg>
