<?xml version="1.0" encoding="UTF-8"?>
<svg xmlns="http://www.w3.org/2000/svg" viewBox="0 0 630 420" role="img" aria-labelledby="g-collector-title g-collector-desc">
  <title id="g-collector-title">수집가</title>
  <desc id="g-collector-desc">마법사 카드 수집가의 판타지 일러스트</desc>
  <defs>
    <linearGradient id="g-collector-bg" x1="0" y1="0" x2="1" y2="1">
      <stop offset="0" stop-color="#3a123f"/>
      <stop offset="0.55" stop-color="#a23b86"/>
      <stop offset="1" stop-color="#f3a6d9"/>
    </linearGradient>
    <radialGradient id="g-collector-glow" cx="50%" cy="38%" r="58%">
      <stop offset="0" stop-color="#ffd9f4" stop-opacity="0.7"/>
      <stop offset="0.58" stop-color="#ffd9f4" stop-opacity="0.12"/>
      <stop offset="1" stop-color="#000" stop-opacity="0"/>
    </radialGradient>
    <filter id="g-collector-soft" x="-20%" y="-20%" width="140%" height="140%">
      <feDropShadow dx="0" dy="10" stdDeviation="8" flood-color="#000" flood-opacity="0.35"/>
    </filter>
  </defs>
  <rect width="630" height="420" rx="26" fill="url(#g-collector-bg)"/>
  <rect width="630" height="420" rx="26" fill="url(#g-collector-glow)"/>
  <path d="M0 314 C86 286 154 328 242 302 C329 276 407 244 501 279 C553 298 591 287 630 270 L630 420 L0 420 Z" fill="#1a1512" opacity="0.32"/>
  <path d="M0 356 C91 330 158 359 242 340 C340 317 395 299 486 330 C542 349 586 341 630 320 L630 420 L0 420 Z" fill="#070707" opacity="0.2"/>
  <g opacity="0.95" transform="translate(0 0)"><circle cx="250" cy="204" r="50" fill="#ffd9f4"/><circle cx="337" cy="158" r="39" fill="#f3a6d9"/><circle cx="400" cy="237" r="48" fill="#a23b86"/><path d="M196 323 H457" stroke="#3a123f" stroke-width="19" stroke-linecap="round"/></g>
  <g opacity="0.55" transform="translate(58 0)"><path d="M190 285 H455 M203 216 H432" stroke="#3a123f" stroke-width="16" stroke-linecap="round"/><rect x="224" y="184" width="34" height="95" fill="#ffd9f4"/><rect x="276" y="160" width="34" height="119" fill="#f3a6d9"/><rect x="357" y="194" width="34" height="85" fill="#a23b86"/></g>
  <rect x="18" y="18" width="594" height="384" rx="20" fill="none" stroke="#fff3d0" stroke-opacity="0.22" stroke-width="4"/>
</svg>
