<?xml version="1.0" encoding="UTF-8"?>
<svg xmlns="http://www.w3.org/2000/svg" viewBox="0 0 630 420" role="img" aria-labelledby="g-dwarvish-infantry-title g-dwarvish-infantry-desc">
  <title id="g-dwarvish-infantry-title">드워프 보병대</title>
  <desc id="g-dwarvish-infantry-desc">군대 카드 드워프 보병대의 판타지 일러스트</desc>
  <defs>
    <linearGradient id="g-dwarvish-infantry-bg" x1="0" y1="0" x2="1" y2="1">
      <stop offset="0" stop-color="#252b35"/>
      <stop offset="0.55" stop-color="#737b86"/>
      <stop offset="1" stop-color="#c3b18b"/>
    </linearGradient>
    <radialGradient id="g-dwarvish-infantry-glow" cx="50%" cy="38%" r="58%">
      <stop offset="0" stop-color="#efdfb5" stop-opacity="0.7"/>
      <stop offset="0.58" stop-color="#efdfb5" stop-opacity="0.12"/>
      <stop offset="1" stop-color="#000" stop-opacity="0"/>
    </radialGradient>
    <filter id="g-dwarvish-infantry-soft" x="-20%" y="-20%" width="140%" height="140%">
      <feDropShadow dx="0" dy="10" stdDeviation="8" flood-color="#000" flood-opacity="0.35"/>
    </filter>
  </defs>
  <rect width="630" height="420" rx="26" fill="url(#g-dwarvish-infantry-bg)"/>
  <rect width="630" height="420" rx="26" fill="url(#g-dwarvish-infantry-glow)"/>
  <path d="M0 314 C86 286 154 328 242 302 C329 276 407 244 501 279 C553 298 591 287 630 270 L630 420 L0 420 Z" fill="#1a1512" opacity="0.32"/>
  <path d="M0 356 C91 330 158 359 242 340 C340 317 395 299 486 330 C542 349 586 341 630 320 L630 420 L0 420 Z" fill="#070707" opacity="0.2"/>
  <g opacity="0.95" transform="translate(0 0)"><path d="M316 73 L454 124 C447 240 401 316 316 360 C231 316 185 240 178 124 Z" fill="#efdfb5"/><path d="M316 102 V327 M232 151 H399" fill="none" stroke="#252b35" stroke-width="13" stroke-linecap="round"/></g>
  <g opacity="0.55" transform="translate(58 0)"><path d="M318 106 V355" stroke="#efdfb5" stroke-width="18" stroke-linecap="round"/><path d="M318 131 C221 132 203 214 259 251 C288 224 315 198 318 131 Z M318 131 C415 132 433 214 377 251 C348 224 321 198 318 131 Z" fill="#c3b18b"/></g>
  <rect x="18" y="18" width="594" height="384" rx="20" fill="none" stroke="#fff3d0" stroke-opacity="0.22" stroke-width="4"/>
</svg>
