<?xml version="1.0" encoding="UTF-8"?>
<svg xmlns="http://www.w3.org/2000/svg" viewBox="0 0 630 420" role="img" aria-labelledby="g-earth-elemental-title g-earth-elemental-desc">
  <title id="g-earth-elemental-title">땅의 정령</title>
  <desc id="g-earth-elemental-desc">땅 카드 땅의 정령의 판타지 일러스트</desc>
  <defs>
    <linearGradient id="g-earth-elemental-bg" x1="0" y1="0" x2="1" y2="1">
      <stop offset="0" stop-color="#4b3b25"/>
      <stop offset="0.55" stop-color="#a3753d"/>
      <stop offset="1" stop-color="#2f5b34"/>
    </linearGradient>
    <radialGradient id="g-earth-elemental-glow" cx="50%" cy="38%" r="58%">
      <stop offset="0" stop-color="#f0c36a" stop-opacity="0.7"/>
      <stop offset="0.58" stop-color="#f0c36a" stop-opacity="0.12"/>
      <stop offset="1" stop-color="#000" stop-opacity="0"/>
    </radialGradient>
    <filter id="g-earth-elemental-soft" x="-20%" y="-20%" width="140%" height="140%">
      <feDropShadow dx="0" dy="10" stdDeviation="8" flood-color="#000" flood-opacity="0.35"/>
    </filter>
  </defs>
  <rect width="630" height="420" rx="26" fill="url(#g-earth-elemental-bg)"/>
  <rect width="630" height="420" rx="26" fill="url(#g-earth-elemental-glow)"/>
  <path d="M0 314 C86 286 154 328 242 302 C329 276 407 244 501 279 C553 298 591 287 630 270 L630 420 L0 420 Z" fill="#1a1512" opacity="0.32"/>
  <path d="M0 356 C91 330 158 359 242 340 C340 317 395 299 486 330 C542 349 586 341 630 320 L630 420 L0 420 Z" fill="#070707" opacity="0.2"/>
  <g opacity="0.95" transform="translate(0 0)"><path d="M238 328 L259 198 L319 158 L379 198 L402 328 Z" fill="#4b3b25"/><circle cx="289" cy="214" r="14" fill="#f0c36a"/><circle cx="350" cy="214" r="14" fill="#f0c36a"/><path d="M221 265 L155 333 M417 265 L485 332" fill="none" stroke="#4b3b25" stroke-width="34" stroke-linecap="round"/></g>
  <g opacity="0.55" transform="translate(58 0)"><ellipse cx="213" cy="338" rx="64" ry="24" fill="#4b3b25"/><ellipse cx="330" cy="333" rx="82" ry="30" fill="#a3753d"/><ellipse cx="449" cy="344" rx="58" ry="22" fill="#4b3b25"/></g>
  <rect x="18" y="18" width="594" height="384" rx="20" fill="none" stroke="#fff3d0" stroke-opacity="0.22" stroke-width="4"/>
</svg>
