<?xml version="1.0" encoding="UTF-8"?>
<svg xmlns="http://www.w3.org/2000/svg" viewBox="0 0 630 420" role="img" aria-labelledby="g-elven-archers-title g-elven-archers-desc">
  <title id="g-elven-archers-title">엘프 궁수대</title>
  <desc id="g-elven-archers-desc">군대 카드 엘프 궁수대의 판타지 일러스트</desc>
  <defs>
    <linearGradient id="g-elven-archers-bg" x1="0" y1="0" x2="1" y2="1">
      <stop offset="0" stop-color="#252b35"/>
      <stop offset="0.55" stop-color="#737b86"/>
      <stop offset="1" stop-color="#c3b18b"/>
    </linearGradient>
    <radialGradient id="g-elven-archers-glow" cx="50%" cy="38%" r="58%">
      <stop offset="0" stop-color="#efdfb5" stop-opacity="0.7"/>
      <stop offset="0.58" stop-color="#efdfb5" stop-opacity="0.12"/>
      <stop offset="1" stop-color="#000" stop-opacity="0"/>
    </radialGradient>
    <filter id="g-elven-archers-soft" x="-20%" y="-20%" width="140%" height="140%">
      <feDropShadow dx="0" dy="10" stdDeviation="8" flood-color="#000" flood-opacity="0.35"/>
    </filter>
  </defs>
  <rect width="630" height="420" rx="26" fill="url(#g-elven-archers-bg)"/>
  <rect width="630" height="420" rx="26" fill="url(#g-elven-archers-glow)"/>
  <path d="M0 314 C86 286 154 328 242 302 C329 276 407 244 501 279 C553 298 591 287 630 270 L630 420 L0 420 Z" fill="#1a1512" opacity="0.32"/>
  <path d="M0 356 C91 330 158 359 242 340 C340 317 395 299 486 330 C542 349 586 341 630 320 L630 420 L0 420 Z" fill="#070707" opacity="0.2"/>
  <g opacity="0.95" transform="translate(0 0)"><path d="M417 74 C262 139 259 287 417 356" fill="none" stroke="#efdfb5" stroke-width="18" stroke-linecap="round"/><path d="M418 74 L418 356 M171 215 H416" fill="none" stroke="#f7ead8" stroke-width="8" stroke-linecap="round"/><path d="M171 215 L221 193 M171 215 L221 238" fill="none" stroke="#f7ead8" stroke-width="8" stroke-linecap="round"/></g>
  <g opacity="0.55" transform="translate(58 0)"><circle cx="433" cy="94" r="52" fill="#c3b18b"/><circle cx="456" cy="82" r="52" fill="#737b86"/></g>
  <rect x="18" y="18" width="594" height="384" rx="20" fill="none" stroke="#fff3d0" stroke-opacity="0.22" stroke-width="4"/>
</svg>
