<?xml version="1.0" encoding="UTF-8"?>
<svg xmlns="http://www.w3.org/2000/svg" viewBox="0 0 630 420" role="img" aria-labelledby="g-empress-title g-empress-desc">
  <title id="g-empress-title">여제</title>
  <desc id="g-empress-desc">지도자 카드 여제의 판타지 일러스트</desc>
  <defs>
    <linearGradient id="g-empress-bg" x1="0" y1="0" x2="1" y2="1">
      <stop offset="0" stop-color="#30214e"/>
      <stop offset="0.55" stop-color="#805ad5"/>
      <stop offset="1" stop-color="#e6ceff"/>
    </linearGradient>
    <radialGradient id="g-empress-glow" cx="50%" cy="38%" r="58%">
      <stop offset="0" stop-color="#ffd66b" stop-opacity="0.7"/>
      <stop offset="0.58" stop-color="#ffd66b" stop-opacity="0.12"/>
      <stop offset="1" stop-color="#000" stop-opacity="0"/>
    </radialGradient>
    <filter id="g-empress-soft" x="-20%" y="-20%" width="140%" height="140%">
      <feDropShadow dx="0" dy="10" stdDeviation="8" flood-color="#000" flood-opacity="0.35"/>
    </filter>
  </defs>
  <rect width="630" height="420" rx="26" fill="url(#g-empress-bg)"/>
  <rect width="630" height="420" rx="26" fill="url(#g-empress-glow)"/>
  <path d="M0 314 C86 286 154 328 242 302 C329 276 407 244 501 279 C553 298 591 287 630 270 L630 420 L0 420 Z" fill="#1a1512" opacity="0.32"/>
  <path d="M0 356 C91 330 158 359 242 340 C340 317 395 299 486 330 C542 349 586 341 630 320 L630 420 L0 420 Z" fill="#070707" opacity="0.2"/>
  <g opacity="0.95" transform="translate(0 0)"><path d="M194 259 L231 128 L299 236 L362 128 L432 236 L475 128 L454 323 H214 Z" fill="#ffd66b"/><circle cx="231" cy="128" r="17" fill="#e6ceff"/><circle cx="362" cy="128" r="17" fill="#e6ceff"/><circle cx="475" cy="128" r="17" fill="#e6ceff"/></g>
  <g opacity="0.55" transform="translate(58 0)"><circle cx="451" cy="110" r="45" fill="#ffe082"/><path d="M451 35 V10 M451 210 V185 M376 110 H351 M551 110 H526 M398 57 L380 39 M504 163 L522 181 M504 57 L522 39 M398 163 L380 181" fill="none" stroke="#ffe082" stroke-width="11" stroke-linecap="round"/></g>
  <rect x="18" y="18" width="594" height="384" rx="20" fill="none" stroke="#fff3d0" stroke-opacity="0.22" stroke-width="4"/>
</svg>
