<?xml version="1.0" encoding="UTF-8"?>
<svg xmlns="http://www.w3.org/2000/svg" viewBox="0 0 630 420" role="img" aria-labelledby="g-flood-title g-flood-desc">
  <title id="g-flood-title">대홍수</title>
  <desc id="g-flood-desc">물 카드 대홍수의 판타지 일러스트</desc>
  <defs>
    <linearGradient id="g-flood-bg" x1="0" y1="0" x2="1" y2="1">
      <stop offset="0" stop-color="#0e3657"/>
      <stop offset="0.55" stop-color="#2c81a3"/>
      <stop offset="1" stop-color="#bde7ef"/>
    </linearGradient>
    <radialGradient id="g-flood-glow" cx="50%" cy="38%" r="58%">
      <stop offset="0" stop-color="#7fd7ff" stop-opacity="0.7"/>
      <stop offset="0.58" stop-color="#7fd7ff" stop-opacity="0.12"/>
      <stop offset="1" stop-color="#000" stop-opacity="0"/>
    </radialGradient>
    <filter id="g-flood-soft" x="-20%" y="-20%" width="140%" height="140%">
      <feDropShadow dx="0" dy="10" stdDeviation="8" flood-color="#000" flood-opacity="0.35"/>
    </filter>
  </defs>
  <rect width="630" height="420" rx="26" fill="url(#g-flood-bg)"/>
  <rect width="630" height="420" rx="26" fill="url(#g-flood-glow)"/>
  <path d="M0 314 C86 286 154 328 242 302 C329 276 407 244 501 279 C553 298 591 287 630 270 L630 420 L0 420 Z" fill="#1a1512" opacity="0.32"/>
  <path d="M0 356 C91 330 158 359 242 340 C340 317 395 299 486 330 C542 349 586 341 630 320 L630 420 L0 420 Z" fill="#070707" opacity="0.2"/>
  <g opacity="0.95" transform="translate(0 0)"><path d="M105 308 C173 201 274 269 311 183 C348 263 444 195 525 304 C433 285 392 342 315 326 C240 311 185 289 105 308 Z" fill="#bcf2ff"/><path d="M148 302 C215 264 252 342 321 302 C389 262 433 319 497 281" fill="none" stroke="#0e3657" stroke-width="12" opacity="0.5"/></g>
  <g opacity="0.55" transform="translate(58 0)"><path d="M185 340 H459 V362 H185 Z M218 212 H255 V340 H218 Z M303 178 H340 V340 H303 Z M388 226 H425 V340 H388 Z" fill="#0e3657" opacity="0.78"/></g>
  <rect x="18" y="18" width="594" height="384" rx="20" fill="none" stroke="#fff3d0" stroke-opacity="0.22" stroke-width="4"/>
</svg>
