<?xml version="1.0" encoding="UTF-8"?>
<svg xmlns="http://www.w3.org/2000/svg" viewBox="0 0 630 420" role="img" aria-labelledby="g-forest-title g-forest-desc">
  <title id="g-forest-title">숲</title>
  <desc id="g-forest-desc">땅 카드 숲의 판타지 일러스트</desc>
  <defs>
    <linearGradient id="g-forest-bg" x1="0" y1="0" x2="1" y2="1">
      <stop offset="0" stop-color="#4b3b25"/>
      <stop offset="0.55" stop-color="#a3753d"/>
      <stop offset="1" stop-color="#2f5b34"/>
    </linearGradient>
    <radialGradient id="g-forest-glow" cx="50%" cy="38%" r="58%">
      <stop offset="0" stop-color="#f0c36a" stop-opacity="0.7"/>
      <stop offset="0.58" stop-color="#f0c36a" stop-opacity="0.12"/>
      <stop offset="1" stop-color="#000" stop-opacity="0"/>
    </radialGradient>
    <filter id="g-forest-soft" x="-20%" y="-20%" width="140%" height="140%">
      <feDropShadow dx="0" dy="10" stdDeviation="8" flood-color="#000" flood-opacity="0.35"/>
    </filter>
  </defs>
  <rect width="630" height="420" rx="26" fill="url(#g-forest-bg)"/>
  <rect width="630" height="420" rx="26" fill="url(#g-forest-glow)"/>
  <path d="M0 314 C86 286 154 328 242 302 C329 276 407 244 501 279 C553 298 591 287 630 270 L630 420 L0 420 Z" fill="#1a1512" opacity="0.32"/>
  <path d="M0 356 C91 330 158 359 242 340 C340 317 395 299 486 330 C542 349 586 341 630 320 L630 420 L0 420 Z" fill="#070707" opacity="0.2"/>
  <g opacity="0.95" transform="translate(0 0)"><path d="M178 334 L228 118 L278 334 Z M294 344 L355 84 L420 344 Z M420 342 L468 147 L520 342 Z" fill="#4b3b25"/><path d="M226 214 H232 V360 H226 Z M353 178 H361 V362 H353 Z M466 246 H473 V360 H466 Z" fill="#2b1d15"/></g>
  <g opacity="0.55" transform="translate(58 0)"><path d="M263 296 C292 240 381 236 413 288 L389 342 H288 Z" fill="#4b3b25"/><path d="M333 245 L306 172 M350 244 L389 171 M306 172 L270 135 M306 172 L330 137 M389 171 L364 134 M389 171 L423 139" fill="none" stroke="#f0c36a" stroke-width="12" stroke-linecap="round" stroke-linejoin="round" opacity="0.75"/></g>
  <rect x="18" y="18" width="594" height="384" rx="20" fill="none" stroke="#fff3d0" stroke-opacity="0.22" stroke-width="4"/>
</svg>
