<?xml version="1.0" encoding="UTF-8"?>
<svg xmlns="http://www.w3.org/2000/svg" viewBox="0 0 630 420" role="img" aria-labelledby="g-forge-title g-forge-desc">
  <title id="g-forge-title">대장간</title>
  <desc id="g-forge-desc">불 카드 대장간의 판타지 일러스트</desc>
  <defs>
    <linearGradient id="g-forge-bg" x1="0" y1="0" x2="1" y2="1">
      <stop offset="0" stop-color="#4c160f"/>
      <stop offset="0.55" stop-color="#cf3a1f"/>
      <stop offset="1" stop-color="#ffbf4b"/>
    </linearGradient>
    <radialGradient id="g-forge-glow" cx="50%" cy="38%" r="58%">
      <stop offset="0" stop-color="#ffe084" stop-opacity="0.7"/>
      <stop offset="0.58" stop-color="#ffe084" stop-opacity="0.12"/>
      <stop offset="1" stop-color="#000" stop-opacity="0"/>
    </radialGradient>
    <filter id="g-forge-soft" x="-20%" y="-20%" width="140%" height="140%">
      <feDropShadow dx="0" dy="10" stdDeviation="8" flood-color="#000" flood-opacity="0.35"/>
    </filter>
  </defs>
  <rect width="630" height="420" rx="26" fill="url(#g-forge-bg)"/>
  <rect width="630" height="420" rx="26" fill="url(#g-forge-glow)"/>
  <path d="M0 314 C86 286 154 328 242 302 C329 276 407 244 501 279 C553 298 591 287 630 270 L630 420 L0 420 Z" fill="#1a1512" opacity="0.32"/>
  <path d="M0 356 C91 330 158 359 242 340 C340 317 395 299 486 330 C542 349 586 341 630 320 L630 420 L0 420 Z" fill="#070707" opacity="0.2"/>
  <g opacity="0.95" transform="translate(0 0)"><path d="M210 340 H430 L398 224 H242 Z" fill="#4c160f"/><path d="M259 225 C280 151 356 151 375 225 Z" fill="#ff9b2f"/><path d="M187 187 H443 V224 H187 Z" fill="#ffbf4b"/></g>
  <g opacity="0.55" transform="translate(58 0)"><path d="M219 138 H398 V187 H219 Z M308 187 L356 343" fill="none" stroke="#ffe084" stroke-width="24" stroke-linecap="round" stroke-linejoin="round"/></g>
  <rect x="18" y="18" width="594" height="384" rx="20" fill="none" stroke="#fff3d0" stroke-opacity="0.22" stroke-width="4"/>
</svg>
