<?xml version="1.0" encoding="UTF-8"?>
<svg xmlns="http://www.w3.org/2000/svg" viewBox="0 0 630 420" role="img" aria-labelledby="g-fountain-of-life-title g-fountain-of-life-desc">
  <title id="g-fountain-of-life-title">생명의 샘</title>
  <desc id="g-fountain-of-life-desc">물 카드 생명의 샘의 판타지 일러스트</desc>
  <defs>
    <linearGradient id="g-fountain-of-life-bg" x1="0" y1="0" x2="1" y2="1">
      <stop offset="0" stop-color="#0e3657"/>
      <stop offset="0.55" stop-color="#2c81a3"/>
      <stop offset="1" stop-color="#bde7ef"/>
    </linearGradient>
    <radialGradient id="g-fountain-of-life-glow" cx="50%" cy="38%" r="58%">
      <stop offset="0" stop-color="#7fd7ff" stop-opacity="0.7"/>
      <stop offset="0.58" stop-color="#7fd7ff" stop-opacity="0.12"/>
      <stop offset="1" stop-color="#000" stop-opacity="0"/>
    </radialGradient>
    <filter id="g-fountain-of-life-soft" x="-20%" y="-20%" width="140%" height="140%">
      <feDropShadow dx="0" dy="10" stdDeviation="8" flood-color="#000" flood-opacity="0.35"/>
    </filter>
  </defs>
  <rect width="630" height="420" rx="26" fill="url(#g-fountain-of-life-bg)"/>
  <rect width="630" height="420" rx="26" fill="url(#g-fountain-of-life-glow)"/>
  <path d="M0 314 C86 286 154 328 242 302 C329 276 407 244 501 279 C553 298 591 287 630 270 L630 420 L0 420 Z" fill="#1a1512" opacity="0.32"/>
  <path d="M0 356 C91 330 158 359 242 340 C340 317 395 299 486 330 C542 349 586 341 630 320 L630 420 L0 420 Z" fill="#070707" opacity="0.2"/>
  <g opacity="0.95" transform="translate(0 0)"><path d="M316 86 C268 170 245 223 316 287 C387 223 365 170 316 86 Z" fill="#baf3ff"/><path d="M201 284 C223 355 410 355 431 284 Z" fill="#bde7ef"/><path d="M258 348 H374 L397 374 H235 Z" fill="#0e3657"/></g>
  <g opacity="0.55" transform="translate(58 0)"><path d="M319 82 L345 173 L439 198 L348 225 L319 318 L289 225 L197 198 L290 173 Z" fill="#7fd7ff"/><circle cx="470" cy="112" r="16" fill="#bde7ef"/><circle cx="185" cy="296" r="12" fill="#bde7ef"/></g>
  <rect x="18" y="18" width="594" height="384" rx="20" fill="none" stroke="#fff3d0" stroke-opacity="0.22" stroke-width="4"/>
</svg>
