<?xml version="1.0" encoding="UTF-8"?>
<svg xmlns="http://www.w3.org/2000/svg" viewBox="0 0 630 420" role="img" aria-labelledby="g-island-title g-island-desc">
  <title id="g-island-title">섬</title>
  <desc id="g-island-desc">물 카드 섬의 판타지 일러스트</desc>
  <defs>
    <linearGradient id="g-island-bg" x1="0" y1="0" x2="1" y2="1">
      <stop offset="0" stop-color="#0e3657"/>
      <stop offset="0.55" stop-color="#2c81a3"/>
      <stop offset="1" stop-color="#bde7ef"/>
    </linearGradient>
    <radialGradient id="g-island-glow" cx="50%" cy="38%" r="58%">
      <stop offset="0" stop-color="#7fd7ff" stop-opacity="0.7"/>
      <stop offset="0.58" stop-color="#7fd7ff" stop-opacity="0.12"/>
      <stop offset="1" stop-color="#000" stop-opacity="0"/>
    </radialGradient>
    <filter id="g-island-soft" x="-20%" y="-20%" width="140%" height="140%">
      <feDropShadow dx="0" dy="10" stdDeviation="8" flood-color="#000" flood-opacity="0.35"/>
    </filter>
  </defs>
  <rect width="630" height="420" rx="26" fill="url(#g-island-bg)"/>
  <rect width="630" height="420" rx="26" fill="url(#g-island-glow)"/>
  <path d="M0 314 C86 286 154 328 242 302 C329 276 407 244 501 279 C553 298 591 287 630 270 L630 420 L0 420 Z" fill="#1a1512" opacity="0.32"/>
  <path d="M0 356 C91 330 158 359 242 340 C340 317 395 299 486 330 C542 349 586 341 630 320 L630 420 L0 420 Z" fill="#070707" opacity="0.2"/>
  <g opacity="0.95" transform="translate(0 0)"><path d="M194 311 C250 253 383 251 439 311 Z" fill="#0e3657"/><path d="M317 303 C318 222 357 176 413 149 M360 198 C326 183 310 155 302 112 M368 196 C407 195 431 172 461 143" fill="none" stroke="#7fd7ff" stroke-width="12" stroke-linecap="round" stroke-linejoin="round" opacity="0.7"/></g>
  <g opacity="0.55" transform="translate(58 0)"><circle cx="451" cy="110" r="45" fill="#ffe082"/><path d="M451 35 V10 M451 210 V185 M376 110 H351 M551 110 H526 M398 57 L380 39 M504 163 L522 181 M504 57 L522 39 M398 163 L380 181" fill="none" stroke="#ffe082" stroke-width="11" stroke-linecap="round"/></g>
  <rect x="18" y="18" width="594" height="384" rx="20" fill="none" stroke="#fff3d0" stroke-opacity="0.22" stroke-width="4"/>
</svg>
