<?xml version="1.0" encoding="UTF-8"?>
<svg xmlns="http://www.w3.org/2000/svg" viewBox="0 0 630 420" role="img" aria-labelledby="g-lightning-title g-lightning-desc">
  <title id="g-lightning-title">번개</title>
  <desc id="g-lightning-desc">불 카드 번개의 판타지 일러스트</desc>
  <defs>
    <linearGradient id="g-lightning-bg" x1="0" y1="0" x2="1" y2="1">
      <stop offset="0" stop-color="#4c160f"/>
      <stop offset="0.55" stop-color="#cf3a1f"/>
      <stop offset="1" stop-color="#ffbf4b"/>
    </linearGradient>
    <radialGradient id="g-lightning-glow" cx="50%" cy="38%" r="58%">
      <stop offset="0" stop-color="#ffe084" stop-opacity="0.7"/>
      <stop offset="0.58" stop-color="#ffe084" stop-opacity="0.12"/>
      <stop offset="1" stop-color="#000" stop-opacity="0"/>
    </radialGradient>
    <filter id="g-lightning-soft" x="-20%" y="-20%" width="140%" height="140%">
      <feDropShadow dx="0" dy="10" stdDeviation="8" flood-color="#000" flood-opacity="0.35"/>
    </filter>
  </defs>
  <rect width="630" height="420" rx="26" fill="url(#g-lightning-bg)"/>
  <rect width="630" height="420" rx="26" fill="url(#g-lightning-glow)"/>
  <path d="M0 314 C86 286 154 328 242 302 C329 276 407 244 501 279 C553 298 591 287 630 270 L630 420 L0 420 Z" fill="#1a1512" opacity="0.32"/>
  <path d="M0 356 C91 330 158 359 242 340 C340 317 395 299 486 330 C542 349 586 341 630 320 L630 420 L0 420 Z" fill="#070707" opacity="0.2"/>
  <g opacity="0.95" transform="translate(0 0)"><path d="M361 54 L213 244 H322 L271 370 L430 177 H319 Z" fill="#fff27a"/></g>
  <g opacity="0.55" transform="translate(58 0)"><path d="M171 232 C174 169 254 160 280 205 C308 139 413 141 429 219 C494 211 528 274 482 316 H196 C133 313 121 244 171 232 Z" fill="#f3f6ff"/></g>
  <rect x="18" y="18" width="594" height="384" rx="20" fill="none" stroke="#fff3d0" stroke-opacity="0.22" stroke-width="4"/>
</svg>
