<?xml version="1.0" encoding="UTF-8"?>
<svg xmlns="http://www.w3.org/2000/svg" viewBox="0 0 630 420" role="img" aria-labelledby="g-light-cavalry-title g-light-cavalry-desc">
  <title id="g-light-cavalry-title">경기병대</title>
  <desc id="g-light-cavalry-desc">군대 카드 경기병대의 판타지 일러스트</desc>
  <defs>
    <linearGradient id="g-light-cavalry-bg" x1="0" y1="0" x2="1" y2="1">
      <stop offset="0" stop-color="#252b35"/>
      <stop offset="0.55" stop-color="#737b86"/>
      <stop offset="1" stop-color="#c3b18b"/>
    </linearGradient>
    <radialGradient id="g-light-cavalry-glow" cx="50%" cy="38%" r="58%">
      <stop offset="0" stop-color="#efdfb5" stop-opacity="0.7"/>
      <stop offset="0.58" stop-color="#efdfb5" stop-opacity="0.12"/>
      <stop offset="1" stop-color="#000" stop-opacity="0"/>
    </radialGradient>
    <filter id="g-light-cavalry-soft" x="-20%" y="-20%" width="140%" height="140%">
      <feDropShadow dx="0" dy="10" stdDeviation="8" flood-color="#000" flood-opacity="0.35"/>
    </filter>
  </defs>
  <rect width="630" height="420" rx="26" fill="url(#g-light-cavalry-bg)"/>
  <rect width="630" height="420" rx="26" fill="url(#g-light-cavalry-glow)"/>
  <path d="M0 314 C86 286 154 328 242 302 C329 276 407 244 501 279 C553 298 591 287 630 270 L630 420 L0 420 Z" fill="#1a1512" opacity="0.32"/>
  <path d="M0 356 C91 330 158 359 242 340 C340 317 395 299 486 330 C542 349 586 341 630 320 L630 420 L0 420 Z" fill="#070707" opacity="0.2"/>
  <g opacity="0.95" transform="translate(0 0)"><path d="M161 300 C221 229 356 219 452 286 L424 340 H205 Z" fill="#252b35"/><circle cx="435" cy="246" r="31" fill="#252b35"/><path d="M238 333 L209 376 M356 333 L382 376 M285 210 L327 156 L365 217" fill="none" stroke="#efdfb5" stroke-width="12" stroke-linecap="round" stroke-linejoin="round" opacity="0.72"/></g>
  <g opacity="0.55" transform="translate(58 0)"><path d="M292 86 V350" stroke="#252b35" stroke-width="16" stroke-linecap="round"/><path d="M303 101 H453 L416 166 L453 231 H303 Z" fill="#efdfb5"/></g>
  <rect x="18" y="18" width="594" height="384" rx="20" fill="none" stroke="#fff3d0" stroke-opacity="0.22" stroke-width="4"/>
</svg>
