<?xml version="1.0" encoding="UTF-8"?>
<svg xmlns="http://www.w3.org/2000/svg" viewBox="0 0 630 420" role="img" aria-labelledby="g-mirage-title g-mirage-desc">
  <title id="g-mirage-title">신기루</title>
  <desc id="g-mirage-desc">불명 카드 신기루의 판타지 일러스트</desc>
  <defs>
    <linearGradient id="g-mirage-bg" x1="0" y1="0" x2="1" y2="1">
      <stop offset="0" stop-color="#3a3430"/>
      <stop offset="0.55" stop-color="#9ca3af"/>
      <stop offset="1" stop-color="#f4efe6"/>
    </linearGradient>
    <radialGradient id="g-mirage-glow" cx="50%" cy="38%" r="58%">
      <stop offset="0" stop-color="#c7f9ff" stop-opacity="0.7"/>
      <stop offset="0.58" stop-color="#c7f9ff" stop-opacity="0.12"/>
      <stop offset="1" stop-color="#000" stop-opacity="0"/>
    </radialGradient>
    <filter id="g-mirage-soft" x="-20%" y="-20%" width="140%" height="140%">
      <feDropShadow dx="0" dy="10" stdDeviation="8" flood-color="#000" flood-opacity="0.35"/>
    </filter>
  </defs>
  <rect width="630" height="420" rx="26" fill="url(#g-mirage-bg)"/>
  <rect width="630" height="420" rx="26" fill="url(#g-mirage-glow)"/>
  <path d="M0 314 C86 286 154 328 242 302 C329 276 407 244 501 279 C553 298 591 287 630 270 L630 420 L0 420 Z" fill="#1a1512" opacity="0.32"/>
  <path d="M0 356 C91 330 158 359 242 340 C340 317 395 299 486 330 C542 349 586 341 630 320 L630 420 L0 420 Z" fill="#070707" opacity="0.2"/>
  <g opacity="0.95" transform="translate(0 0)"><path d="M111 302 C202 247 274 321 345 277 C414 234 491 291 531 263 L531 347 H111 Z" fill="#f1d089" opacity="0.8"/><path d="M196 205 C270 178 353 223 430 194" fill="none" stroke="#f9f6df" stroke-width="18" stroke-linecap="round" opacity="0.62"/></g>
  <g opacity="0.55" transform="translate(58 0)"><path d="M111 302 C202 247 274 321 345 277 C414 234 491 291 531 263 L531 347 H111 Z" fill="#f1d089" opacity="0.8"/><path d="M196 205 C270 178 353 223 430 194" fill="none" stroke="#f9f6df" stroke-width="18" stroke-linecap="round" opacity="0.62"/></g>
  <rect x="18" y="18" width="594" height="384" rx="20" fill="none" stroke="#fff3d0" stroke-opacity="0.22" stroke-width="4"/>
</svg>
