<?xml version="1.0" encoding="UTF-8"?>
<svg xmlns="http://www.w3.org/2000/svg" viewBox="0 0 630 420" role="img" aria-labelledby="g-mountain-title g-mountain-desc">
  <title id="g-mountain-title">산</title>
  <desc id="g-mountain-desc">땅 카드 산의 판타지 일러스트</desc>
  <defs>
    <linearGradient id="g-mountain-bg" x1="0" y1="0" x2="1" y2="1">
      <stop offset="0" stop-color="#4b3b25"/>
      <stop offset="0.55" stop-color="#a3753d"/>
      <stop offset="1" stop-color="#2f5b34"/>
    </linearGradient>
    <radialGradient id="g-mountain-glow" cx="50%" cy="38%" r="58%">
      <stop offset="0" stop-color="#f0c36a" stop-opacity="0.7"/>
      <stop offset="0.58" stop-color="#f0c36a" stop-opacity="0.12"/>
      <stop offset="1" stop-color="#000" stop-opacity="0"/>
    </radialGradient>
    <filter id="g-mountain-soft" x="-20%" y="-20%" width="140%" height="140%">
      <feDropShadow dx="0" dy="10" stdDeviation="8" flood-color="#000" flood-opacity="0.35"/>
    </filter>
  </defs>
  <rect width="630" height="420" rx="26" fill="url(#g-mountain-bg)"/>
  <rect width="630" height="420" rx="26" fill="url(#g-mountain-glow)"/>
  <path d="M0 314 C86 286 154 328 242 302 C329 276 407 244 501 279 C553 298 591 287 630 270 L630 420 L0 420 Z" fill="#1a1512" opacity="0.32"/>
  <path d="M0 356 C91 330 158 359 242 340 C340 317 395 299 486 330 C542 349 586 341 630 320 L630 420 L0 420 Z" fill="#070707" opacity="0.2"/>
  <g opacity="0.95" transform="translate(0 0)"><path d="M84 327 L213 112 L300 327 Z" fill="#4b3b25" opacity="0.8"/><path d="M184 327 L332 78 L506 327 Z" fill="#a3753d" opacity="0.78"/><path d="M332 78 L382 188 L342 169 L314 215 L285 169 Z" fill="#2f5b34"/></g>
  <g opacity="0.55" transform="translate(58 0)"><path d="M338 344 C230 300 257 198 308 142 C325 194 366 186 356 94 C456 178 484 273 338 344 Z" fill="#ffca55"/><path d="M349 322 C292 281 318 222 351 190 C361 227 395 231 395 178 C445 244 428 294 349 322 Z" fill="#e83f22"/></g>
  <rect x="18" y="18" width="594" height="384" rx="20" fill="none" stroke="#fff3d0" stroke-opacity="0.22" stroke-width="4"/>
</svg>
