<?xml version="1.0" encoding="UTF-8"?>
<svg xmlns="http://www.w3.org/2000/svg" viewBox="0 0 630 420" role="img" aria-labelledby="g-protection-rune-title g-protection-rune-desc">
  <title id="g-protection-rune-title">보호의 룬</title>
  <desc id="g-protection-rune-desc">유물 카드 보호의 룬의 판타지 일러스트</desc>
  <defs>
    <linearGradient id="g-protection-rune-bg" x1="0" y1="0" x2="1" y2="1">
      <stop offset="0" stop-color="#4a2607"/>
      <stop offset="0.55" stop-color="#d97706"/>
      <stop offset="1" stop-color="#f8d17c"/>
    </linearGradient>
    <radialGradient id="g-protection-rune-glow" cx="50%" cy="38%" r="58%">
      <stop offset="0" stop-color="#fff3b0" stop-opacity="0.7"/>
      <stop offset="0.58" stop-color="#fff3b0" stop-opacity="0.12"/>
      <stop offset="1" stop-color="#000" stop-opacity="0"/>
    </radialGradient>
    <filter id="g-protection-rune-soft" x="-20%" y="-20%" width="140%" height="140%">
      <feDropShadow dx="0" dy="10" stdDeviation="8" flood-color="#000" flood-opacity="0.35"/>
    </filter>
  </defs>
  <rect width="630" height="420" rx="26" fill="url(#g-protection-rune-bg)"/>
  <rect width="630" height="420" rx="26" fill="url(#g-protection-rune-glow)"/>
  <path d="M0 314 C86 286 154 328 242 302 C329 276 407 244 501 279 C553 298 591 287 630 270 L630 420 L0 420 Z" fill="#1a1512" opacity="0.32"/>
  <path d="M0 356 C91 330 158 359 242 340 C340 317 395 299 486 330 C542 349 586 341 630 320 L630 420 L0 420 Z" fill="#070707" opacity="0.2"/>
  <g opacity="0.95" transform="translate(0 0)"><path d="M316 73 L454 124 C447 240 401 316 316 360 C231 316 185 240 178 124 Z" fill="#fff3b0"/><path d="M316 102 V327 M232 151 H399" fill="none" stroke="#4a2607" stroke-width="13" stroke-linecap="round"/></g>
  <g opacity="0.55" transform="translate(58 0)"><ellipse cx="316" cy="218" rx="171" ry="73" fill="none" stroke="#fff3b0" stroke-width="11"/><ellipse cx="316" cy="218" rx="73" ry="171" fill="none" stroke="#f8d17c" stroke-width="8" opacity="0.72"/><circle cx="316" cy="218" r="25" fill="#fff3b0"/></g>
  <rect x="18" y="18" width="594" height="384" rx="20" fill="none" stroke="#fff3d0" stroke-opacity="0.22" stroke-width="4"/>
</svg>
