<?xml version="1.0" encoding="UTF-8"?>
<svg xmlns="http://www.w3.org/2000/svg" viewBox="0 0 630 420" role="img" aria-labelledby="g-queen-title g-queen-desc">
  <title id="g-queen-title">여왕</title>
  <desc id="g-queen-desc">지도자 카드 여왕의 판타지 일러스트</desc>
  <defs>
    <linearGradient id="g-queen-bg" x1="0" y1="0" x2="1" y2="1">
      <stop offset="0" stop-color="#30214e"/>
      <stop offset="0.55" stop-color="#805ad5"/>
      <stop offset="1" stop-color="#e6ceff"/>
    </linearGradient>
    <radialGradient id="g-queen-glow" cx="50%" cy="38%" r="58%">
      <stop offset="0" stop-color="#ffd66b" stop-opacity="0.7"/>
      <stop offset="0.58" stop-color="#ffd66b" stop-opacity="0.12"/>
      <stop offset="1" stop-color="#000" stop-opacity="0"/>
    </radialGradient>
    <filter id="g-queen-soft" x="-20%" y="-20%" width="140%" height="140%">
      <feDropShadow dx="0" dy="10" stdDeviation="8" flood-color="#000" flood-opacity="0.35"/>
    </filter>
  </defs>
  <rect width="630" height="420" rx="26" fill="url(#g-queen-bg)"/>
  <rect width="630" height="420" rx="26" fill="url(#g-queen-glow)"/>
  <path d="M0 314 C86 286 154 328 242 302 C329 276 407 244 501 279 C553 298 591 287 630 270 L630 420 L0 420 Z" fill="#1a1512" opacity="0.32"/>
  <path d="M0 356 C91 330 158 359 242 340 C340 317 395 299 486 330 C542 349 586 341 630 320 L630 420 L0 420 Z" fill="#070707" opacity="0.2"/>
  <g opacity="0.95" transform="translate(0 0)"><path d="M194 259 L231 128 L299 236 L362 128 L432 236 L475 128 L454 323 H214 Z" fill="#ffd66b"/><circle cx="231" cy="128" r="17" fill="#e6ceff"/><circle cx="362" cy="128" r="17" fill="#e6ceff"/><circle cx="475" cy="128" r="17" fill="#e6ceff"/></g>
  <g opacity="0.55" transform="translate(58 0)"><path d="M318 201 C263 136 344 100 377 156 C430 168 409 254 338 243 Z" fill="#f472b6"/><path d="M318 244 C315 290 297 320 260 348 M320 276 C374 268 405 299 425 345" fill="none" stroke="#ffd66b" stroke-width="12" stroke-linecap="round" stroke-linejoin="round" opacity="0.66"/></g>
  <rect x="18" y="18" width="594" height="384" rx="20" fill="none" stroke="#fff3d0" stroke-opacity="0.22" stroke-width="4"/>
</svg>
