<?xml version="1.0" encoding="UTF-8"?>
<svg xmlns="http://www.w3.org/2000/svg" viewBox="0 0 630 420" role="img" aria-labelledby="g-shapeshifter-title g-shapeshifter-desc">
  <title id="g-shapeshifter-title">변신 능력자</title>
  <desc id="g-shapeshifter-desc">불명 카드 변신 능력자의 판타지 일러스트</desc>
  <defs>
    <linearGradient id="g-shapeshifter-bg" x1="0" y1="0" x2="1" y2="1">
      <stop offset="0" stop-color="#3a3430"/>
      <stop offset="0.55" stop-color="#9ca3af"/>
      <stop offset="1" stop-color="#f4efe6"/>
    </linearGradient>
    <radialGradient id="g-shapeshifter-glow" cx="50%" cy="38%" r="58%">
      <stop offset="0" stop-color="#c7f9ff" stop-opacity="0.7"/>
      <stop offset="0.58" stop-color="#c7f9ff" stop-opacity="0.12"/>
      <stop offset="1" stop-color="#000" stop-opacity="0"/>
    </radialGradient>
    <filter id="g-shapeshifter-soft" x="-20%" y="-20%" width="140%" height="140%">
      <feDropShadow dx="0" dy="10" stdDeviation="8" flood-color="#000" flood-opacity="0.35"/>
    </filter>
  </defs>
  <rect width="630" height="420" rx="26" fill="url(#g-shapeshifter-bg)"/>
  <rect width="630" height="420" rx="26" fill="url(#g-shapeshifter-glow)"/>
  <path d="M0 314 C86 286 154 328 242 302 C329 276 407 244 501 279 C553 298 591 287 630 270 L630 420 L0 420 Z" fill="#1a1512" opacity="0.32"/>
  <path d="M0 356 C91 330 158 359 242 340 C340 317 395 299 486 330 C542 349 586 341 630 320 L630 420 L0 420 Z" fill="#070707" opacity="0.2"/>
  <g opacity="0.95" transform="translate(0 0)"><path d="M223 126 C275 89 358 89 410 126 C395 263 356 331 316 351 C276 331 238 263 223 126 Z" fill="#f4efe6"/><path d="M261 207 C284 190 304 190 324 207 M339 207 C361 190 382 190 404 207" fill="none" stroke="#3a3430" stroke-width="12" stroke-linecap="round"/></g>
  <g opacity="0.55" transform="translate(58 0)"><circle cx="433" cy="94" r="52" fill="#f4efe6"/><circle cx="456" cy="82" r="52" fill="#9ca3af"/></g>
  <rect x="18" y="18" width="594" height="384" rx="20" fill="none" stroke="#fff3d0" stroke-opacity="0.22" stroke-width="4"/>
</svg>
