<?xml version="1.0" encoding="UTF-8"?>
<svg xmlns="http://www.w3.org/2000/svg" viewBox="0 0 630 420" role="img" aria-labelledby="g-smoke-title g-smoke-desc">
  <title id="g-smoke-title">연기</title>
  <desc id="g-smoke-desc">날씨 카드 연기의 판타지 일러스트</desc>
  <defs>
    <linearGradient id="g-smoke-bg" x1="0" y1="0" x2="1" y2="1">
      <stop offset="0" stop-color="#263650"/>
      <stop offset="0.55" stop-color="#8aa0c8"/>
      <stop offset="1" stop-color="#e7edf8"/>
    </linearGradient>
    <radialGradient id="g-smoke-glow" cx="50%" cy="38%" r="58%">
      <stop offset="0" stop-color="#ffffff" stop-opacity="0.7"/>
      <stop offset="0.58" stop-color="#ffffff" stop-opacity="0.12"/>
      <stop offset="1" stop-color="#000" stop-opacity="0"/>
    </radialGradient>
    <filter id="g-smoke-soft" x="-20%" y="-20%" width="140%" height="140%">
      <feDropShadow dx="0" dy="10" stdDeviation="8" flood-color="#000" flood-opacity="0.35"/>
    </filter>
  </defs>
  <rect width="630" height="420" rx="26" fill="url(#g-smoke-bg)"/>
  <rect width="630" height="420" rx="26" fill="url(#g-smoke-glow)"/>
  <path d="M0 314 C86 286 154 328 242 302 C329 276 407 244 501 279 C553 298 591 287 630 270 L630 420 L0 420 Z" fill="#1a1512" opacity="0.32"/>
  <path d="M0 356 C91 330 158 359 242 340 C340 317 395 299 486 330 C542 349 586 341 630 320 L630 420 L0 420 Z" fill="#070707" opacity="0.2"/>
  <g opacity="0.95" transform="translate(0 0)"><path d="M157 260 C236 206 281 296 353 238 C422 184 458 273 524 231" fill="none" stroke="#fff6dc" stroke-width="24" stroke-linecap="round" opacity="0.58"/><path d="M116 321 C203 276 279 354 354 304 C420 260 483 318 547 286" fill="none" stroke="#fff6dc" stroke-width="18" stroke-linecap="round" opacity="0.45"/></g>
  <g opacity="0.55" transform="translate(58 0)"><circle cx="245" cy="300" r="22" fill="#ffcc55"/><circle cx="342" cy="248" r="15" fill="#ff793d"/><circle cx="428" cy="316" r="18" fill="#fff0a8"/></g>
  <rect x="18" y="18" width="594" height="384" rx="20" fill="none" stroke="#fff3d0" stroke-opacity="0.22" stroke-width="4"/>
</svg>
