<?xml version="1.0" encoding="UTF-8"?>
<svg xmlns="http://www.w3.org/2000/svg" viewBox="0 0 630 420" role="img" aria-labelledby="g-swamp-title g-swamp-desc">
  <title id="g-swamp-title">늪</title>
  <desc id="g-swamp-desc">물 카드 늪의 판타지 일러스트</desc>
  <defs>
    <linearGradient id="g-swamp-bg" x1="0" y1="0" x2="1" y2="1">
      <stop offset="0" stop-color="#0e3657"/>
      <stop offset="0.55" stop-color="#2c81a3"/>
      <stop offset="1" stop-color="#bde7ef"/>
    </linearGradient>
    <radialGradient id="g-swamp-glow" cx="50%" cy="38%" r="58%">
      <stop offset="0" stop-color="#7fd7ff" stop-opacity="0.7"/>
      <stop offset="0.58" stop-color="#7fd7ff" stop-opacity="0.12"/>
      <stop offset="1" stop-color="#000" stop-opacity="0"/>
    </radialGradient>
    <filter id="g-swamp-soft" x="-20%" y="-20%" width="140%" height="140%">
      <feDropShadow dx="0" dy="10" stdDeviation="8" flood-color="#000" flood-opacity="0.35"/>
    </filter>
  </defs>
  <rect width="630" height="420" rx="26" fill="url(#g-swamp-bg)"/>
  <rect width="630" height="420" rx="26" fill="url(#g-swamp-glow)"/>
  <path d="M0 314 C86 286 154 328 242 302 C329 276 407 244 501 279 C553 298 591 287 630 270 L630 420 L0 420 Z" fill="#1a1512" opacity="0.32"/>
  <path d="M0 356 C91 330 158 359 242 340 C340 317 395 299 486 330 C542 349 586 341 630 320 L630 420 L0 420 Z" fill="#070707" opacity="0.2"/>
  <g opacity="0.95" transform="translate(0 0)"><path d="M111 298 C184 254 251 334 324 289 C390 249 467 303 534 273 L534 358 L111 358 Z" fill="#0e3657"/><path d="M165 220 C193 180 226 222 208 259 M434 201 C465 172 498 212 474 256" fill="none" stroke="#7fd7ff" stroke-width="12" stroke-linecap="round" stroke-linejoin="round" opacity="0.55"/></g>
  <g opacity="0.55" transform="translate(58 0)"><path d="M157 260 C236 206 281 296 353 238 C422 184 458 273 524 231" fill="none" stroke="#fff6dc" stroke-width="24" stroke-linecap="round" opacity="0.58"/><path d="M116 321 C203 276 279 354 354 304 C420 260 483 318 547 286" fill="none" stroke="#fff6dc" stroke-width="18" stroke-linecap="round" opacity="0.45"/></g>
  <rect x="18" y="18" width="594" height="384" rx="20" fill="none" stroke="#fff3d0" stroke-opacity="0.22" stroke-width="4"/>
</svg>
