<?xml version="1.0" encoding="UTF-8"?>
<svg xmlns="http://www.w3.org/2000/svg" viewBox="0 0 630 420" role="img" aria-labelledby="g-unicorn-title g-unicorn-desc">
  <title id="g-unicorn-title">유니콘</title>
  <desc id="g-unicorn-desc">야수 카드 유니콘의 판타지 일러스트</desc>
  <defs>
    <linearGradient id="g-unicorn-bg" x1="0" y1="0" x2="1" y2="1">
      <stop offset="0" stop-color="#153524"/>
      <stop offset="0.55" stop-color="#2f855a"/>
      <stop offset="1" stop-color="#bfd68f"/>
    </linearGradient>
    <radialGradient id="g-unicorn-glow" cx="50%" cy="38%" r="58%">
      <stop offset="0" stop-color="#f2e394" stop-opacity="0.7"/>
      <stop offset="0.58" stop-color="#f2e394" stop-opacity="0.12"/>
      <stop offset="1" stop-color="#000" stop-opacity="0"/>
    </radialGradient>
    <filter id="g-unicorn-soft" x="-20%" y="-20%" width="140%" height="140%">
      <feDropShadow dx="0" dy="10" stdDeviation="8" flood-color="#000" flood-opacity="0.35"/>
    </filter>
  </defs>
  <rect width="630" height="420" rx="26" fill="url(#g-unicorn-bg)"/>
  <rect width="630" height="420" rx="26" fill="url(#g-unicorn-glow)"/>
  <path d="M0 314 C86 286 154 328 242 302 C329 276 407 244 501 279 C553 298 591 287 630 270 L630 420 L0 420 Z" fill="#1a1512" opacity="0.32"/>
  <path d="M0 356 C91 330 158 359 242 340 C340 317 395 299 486 330 C542 349 586 341 630 320 L630 420 L0 420 Z" fill="#070707" opacity="0.2"/>
  <g opacity="0.95" transform="translate(0 0)"><path d="M179 312 C219 226 346 213 438 277 L402 343 H217 Z" fill="#f6f2e7"/><path d="M430 251 L483 121 L454 264 Z" fill="#ffe177"/><path d="M265 213 C292 161 355 163 389 218" fill="none" stroke="#f6f2e7" stroke-width="33" stroke-linecap="round"/></g>
  <g opacity="0.55" transform="translate(58 0)"><path d="M319 82 L345 173 L439 198 L348 225 L319 318 L289 225 L197 198 L290 173 Z" fill="#f2e394"/><circle cx="470" cy="112" r="16" fill="#bfd68f"/><circle cx="185" cy="296" r="12" fill="#bfd68f"/></g>
  <rect x="18" y="18" width="594" height="384" rx="20" fill="none" stroke="#fff3d0" stroke-opacity="0.22" stroke-width="4"/>
</svg>
