<?xml version="1.0" encoding="UTF-8"?>
<svg xmlns="http://www.w3.org/2000/svg" viewBox="0 0 630 420" role="img" aria-labelledby="g-warlock-title g-warlock-desc">
  <title id="g-warlock-title">대마도사</title>
  <desc id="g-warlock-desc">마법사 카드 대마도사의 판타지 일러스트</desc>
  <defs>
    <linearGradient id="g-warlock-bg" x1="0" y1="0" x2="1" y2="1">
      <stop offset="0" stop-color="#3a123f"/>
      <stop offset="0.55" stop-color="#a23b86"/>
      <stop offset="1" stop-color="#f3a6d9"/>
    </linearGradient>
    <radialGradient id="g-warlock-glow" cx="50%" cy="38%" r="58%">
      <stop offset="0" stop-color="#ffd9f4" stop-opacity="0.7"/>
      <stop offset="0.58" stop-color="#ffd9f4" stop-opacity="0.12"/>
      <stop offset="1" stop-color="#000" stop-opacity="0"/>
    </radialGradient>
    <filter id="g-warlock-soft" x="-20%" y="-20%" width="140%" height="140%">
      <feDropShadow dx="0" dy="10" stdDeviation="8" flood-color="#000" flood-opacity="0.35"/>
    </filter>
  </defs>
  <rect width="630" height="420" rx="26" fill="url(#g-warlock-bg)"/>
  <rect width="630" height="420" rx="26" fill="url(#g-warlock-glow)"/>
  <path d="M0 314 C86 286 154 328 242 302 C329 276 407 244 501 279 C553 298 591 287 630 270 L630 420 L0 420 Z" fill="#1a1512" opacity="0.32"/>
  <path d="M0 356 C91 330 158 359 242 340 C340 317 395 299 486 330 C542 349 586 341 630 320 L630 420 L0 420 Z" fill="#070707" opacity="0.2"/>
  <g opacity="0.95" transform="translate(0 0)"><path d="M231 352 L405 91" stroke="#ffd9f4" stroke-width="19" stroke-linecap="round"/><circle cx="412" cy="82" r="34" fill="#f3a6d9"/><path d="M412 21 V0 M412 164 V140 M351 82 H327 M497 82 H473" stroke="#f3a6d9" stroke-width="9" stroke-linecap="round"/></g>
  <g opacity="0.55" transform="translate(58 0)"><ellipse cx="316" cy="218" rx="171" ry="73" fill="none" stroke="#ffd9f4" stroke-width="11"/><ellipse cx="316" cy="218" rx="73" ry="171" fill="none" stroke="#f3a6d9" stroke-width="8" opacity="0.72"/><circle cx="316" cy="218" r="25" fill="#ffd9f4"/></g>
  <rect x="18" y="18" width="594" height="384" rx="20" fill="none" stroke="#fff3d0" stroke-opacity="0.22" stroke-width="4"/>
</svg>
