<?xml version="1.0" encoding="UTF-8"?>
<svg xmlns="http://www.w3.org/2000/svg" viewBox="0 0 630 420" role="img" aria-labelledby="g-warship-title g-warship-desc">
  <title id="g-warship-title">전함</title>
  <desc id="g-warship-desc">무기 카드 전함의 판타지 일러스트</desc>
  <defs>
    <linearGradient id="g-warship-bg" x1="0" y1="0" x2="1" y2="1">
      <stop offset="0" stop-color="#1f2937"/>
      <stop offset="0.55" stop-color="#6b7280"/>
      <stop offset="1" stop-color="#d8dee9"/>
    </linearGradient>
    <radialGradient id="g-warship-glow" cx="50%" cy="38%" r="58%">
      <stop offset="0" stop-color="#ffffff" stop-opacity="0.7"/>
      <stop offset="0.58" stop-color="#ffffff" stop-opacity="0.12"/>
      <stop offset="1" stop-color="#000" stop-opacity="0"/>
    </radialGradient>
    <filter id="g-warship-soft" x="-20%" y="-20%" width="140%" height="140%">
      <feDropShadow dx="0" dy="10" stdDeviation="8" flood-color="#000" flood-opacity="0.35"/>
    </filter>
  </defs>
  <rect width="630" height="420" rx="26" fill="url(#g-warship-bg)"/>
  <rect width="630" height="420" rx="26" fill="url(#g-warship-glow)"/>
  <path d="M0 314 C86 286 154 328 242 302 C329 276 407 244 501 279 C553 298 591 287 630 270 L630 420 L0 420 Z" fill="#1a1512" opacity="0.32"/>
  <path d="M0 356 C91 330 158 359 242 340 C340 317 395 299 486 330 C542 349 586 341 630 320 L630 420 L0 420 Z" fill="#070707" opacity="0.2"/>
  <g opacity="0.95" transform="translate(0 0)"><path d="M176 279 H480 L434 344 H223 Z" fill="#1f2937"/><path d="M311 98 V277" stroke="#ffffff" stroke-width="14"/><path d="M326 121 L461 236 H326 Z M295 133 L190 243 H295 Z" fill="#d8dee9"/></g>
  <g opacity="0.55" transform="translate(58 0)"><path d="M105 308 C173 201 274 269 311 183 C348 263 444 195 525 304 C433 285 392 342 315 326 C240 311 185 289 105 308 Z" fill="#bcf2ff"/><path d="M148 302 C215 264 252 342 321 302 C389 262 433 319 497 281" fill="none" stroke="#1f2937" stroke-width="12" opacity="0.5"/></g>
  <rect x="18" y="18" width="594" height="384" rx="20" fill="none" stroke="#fff3d0" stroke-opacity="0.22" stroke-width="4"/>
</svg>
