<svg xmlns="http://www.w3.org/2000/svg" viewBox="0 0 420 96" preserveAspectRatio="none">
  <defs>
    <linearGradient id="body" x1="0" x2="0" y1="0" y2="1">
      <stop offset="0" stop-color="#16352d"/>
      <stop offset="0.5" stop-color="#0d241e"/>
      <stop offset="1" stop-color="#06130f"/>
    </linearGradient>
    <linearGradient id="edge" x1="0" x2="1" y1="0" y2="0">
      <stop offset="0" stop-color="#7b4b20"/>
      <stop offset="0.18" stop-color="#f1c56a"/>
      <stop offset="0.5" stop-color="#9b6428"/>
      <stop offset="0.82" stop-color="#f1c56a"/>
      <stop offset="1" stop-color="#7b4b20"/>
    </linearGradient>
  </defs>
  <rect x="7" y="9" width="406" height="78" rx="13" fill="#050b08" opacity="0.92"/>
  <rect x="13" y="14" width="394" height="68" rx="10" fill="url(#body)"/>
  <rect x="15" y="16" width="390" height="64" rx="9" fill="none" stroke="#d6a85b" stroke-width="2"/>
  <path d="M30 62 C45 35 65 29 91 29 H329 C355 29 375 35 390 62" fill="none" stroke="url(#edge)" stroke-width="5" stroke-linecap="round"/>
  <path d="M41 61 C53 44 67 39 88 39 H332 C353 39 367 44 379 61" fill="none" stroke="#f5dda2" stroke-width="1.5" stroke-linecap="round" opacity="0.8"/>
  <path d="M50 68 H370" stroke="#0a1813" stroke-width="4" stroke-linecap="round" opacity="0.75"/>
  <path d="M30 67 Q48 52 63 67 M390 67 Q372 52 357 67" fill="none" stroke="#d2a455" stroke-width="3" stroke-linecap="round"/>
</svg>
