<svg xmlns="http://www.w3.org/2000/svg" viewBox="0 0 420 96" preserveAspectRatio="none">
  <defs>
    <linearGradient id="body" x1="0" x2="0" y1="0" y2="1">
      <stop offset="0" stop-color="#6c6559"/>
      <stop offset="0.52" stop-color="#504b42"/>
      <stop offset="1" stop-color="#3b372f"/>
    </linearGradient>
    <linearGradient id="edge" x1="0" x2="1" y1="0" y2="0">
      <stop offset="0" stop-color="#75634a"/>
      <stop offset="0.2" stop-color="#d9c08c"/>
      <stop offset="0.5" stop-color="#9a8562"/>
      <stop offset="0.8" stop-color="#d9c08c"/>
      <stop offset="1" stop-color="#75634a"/>
    </linearGradient>
  </defs>
  <rect x="7" y="9" width="406" height="78" rx="13" fill="#17140f" opacity="0.7"/>
  <rect x="13" y="14" width="394" height="68" rx="10" fill="url(#body)"/>
  <rect x="15" y="16" width="390" height="64" rx="9" fill="none" stroke="#d6c39a" stroke-width="2" opacity="0.92"/>
  <path d="M30 62 C45 35 65 29 91 29 H329 C355 29 375 35 390 62" fill="none" stroke="url(#edge)" stroke-width="5" stroke-linecap="round"/>
  <path d="M41 61 C53 44 67 39 88 39 H332 C353 39 367 44 379 61" fill="none" stroke="#fff0c7" stroke-width="1.5" stroke-linecap="round" opacity="0.82"/>
  <path d="M50 68 H370" stroke="#2c281f" stroke-width="4" stroke-linecap="round" opacity="0.55"/>
  <path d="M30 67 Q48 52 63 67 M390 67 Q372 52 357 67" fill="none" stroke="#d2bd86" stroke-width="3" stroke-linecap="round"/>
</svg>
